PathFileType	4	(X/Y/Z)	Run_200 01
DataRate	CameraRate	NumFrames	NumMarkers	Units	OrigDataRate	OrigDataStartFrame	OrigNumFrames
120	120	6	42	mm	120	2	128
Frame#	Time	LASI			RASI			LPSI			RPSI			RTH1			RTH2			RTH3			LTH1			LTH2			LTH3			RTB2			RTB3			LTB1			LTB2			LTB3			RCAL			RTOE			RMT5			LCAL			LTOE			LMT5			LACR			RACR			CLAV			C7			RUA1			RUA2			RUA3			RLEL			RMEL			LUA1			LUA2			LUA3			LLEL			LMEL			RFAsuperior			RFAradius			RFAulna			LFAsuperior			LFAradius			LFAulna			RTB1		
		X1	Y1	Z1	X2	Y2	Z2	X3	Y3	Z3	X4	Y4	Z4	X5	Y5	Z5	X6	Y6	Z6	X7	Y7	Z7	X8	Y8	Z8	X9	Y9	Z9	X10	Y10	Z10	X11	Y11	Z11	X12	Y12	Z12	X13	Y13	Z13	X14	Y14	Z14	X15	Y15	Z15	X16	Y16	Z16	X17	Y17	Z17	X18	Y18	Z18	X19	Y19	Z19	X20	Y20	Z20	X21	Y21	Z21	X22	Y22	Z22	X23	Y23	Z23	X24	Y24	Z24	X25	Y25	Z25	X26	Y26	Z26	X27	Y27	Z27	X28	Y28	Z28	X29	Y29	Z29	X30	Y30	Z30	X31	Y31	Z31	X32	Y32	Z32	X33	Y33	Z33	X34	Y34	Z34	X35	Y35	Z35	X36	Y36	Z36	X37	Y37	Z37	X38	Y38	Z38	X39	Y39	Z39	X40	Y40	Z40	X41	Y41	Z41	X42	Y42	Z42	

2	  0.016667	492.132751	990.808323	-459.104086	507.109985	982.775512	-203.939033	323.550424	1006.943848	-353.841418	331.232277	1006.619755	-268.346167	498.289085	799.266406	-168.104180	583.212370	697.535352	-188.030268	535.973337	564.245132	-174.797263	454.590379	849.222430	-501.625171	521.685116	741.201512	-490.732452	471.473269	596.524506	-474.946673	398.751661	391.246851	-178.555228	308.268061	323.425119	-242.502322	512.021445	359.472703	-392.770252	438.401825	265.764394	-431.747558	431.904037	190.719445	-353.121462	149.744045	371.451423	-260.515164	210.821410	161.872726	-240.321757	175.525254	196.882962	-152.819069	282.614527	102.558250	-339.786184	496.921485	 73.020883	-351.179233	464.062509	 58.716313	-434.387192	484.524791	1404.009208	-541.741815	498.338470	1428.041425	-154.741324	586.623572	1385.225682	-322.485154	458.913150	1484.409662	-355.805677	463.503574	1322.373766	-90.648886	468.648951	1250.817355	-94.750076	374.842484	1255.854577	-47.909737	399.819209	1167.066019	-16.526218	331.104364	1154.133039	-73.756728	449.227630	1330.386741	-594.034725	384.578197	1266.625277	-578.610078	432.274715	1244.241042	-638.982789	408.702356	1147.017733	-685.866320	366.404491	1097.627277	-624.486357	468.112574	1140.245867	-62.391687	568.536978	1102.256293	-189.942357	541.373911	1042.594477	-166.772619	479.194438	1147.141581	-667.542528	615.194651	1127.436566	-560.534341	618.612085	1072.466463	-600.251539	475.608497	384.644901	-231.265703	
3	  0.025000	490.228016	992.189510	-458.548633	506.300940	985.012242	-206.141703	322.459328	1008.955642	-354.656065	329.955052	1008.354956	-268.883681	499.402978	801.946198	-168.381646	588.311825	702.874293	-188.905750	545.112206	568.947061	-175.888688	450.351500	850.385845	-501.767655	514.237856	740.848439	-491.459844	461.320119	597.350008	-474.873956	413.004189	393.562347	-178.725839	324.264076	323.434908	-241.836250	498.086284	359.365189	-393.284082	423.193041	266.722483	-432.245975	416.485919	191.160591	-353.583049	162.775731	368.207903	-257.758324	231.137821	160.603669	-240.575781	195.876467	193.215058	-152.771138	266.364045	103.284753	-340.003220	480.060399	 72.576235	-352.173134	447.356317	 58.580076	-434.622949	486.289686	1404.841530	-541.880415	494.612398	1430.721400	-155.023998	585.745884	1387.732607	-321.244085	458.081288	1486.126893	-356.585428	457.937511	1325.810238	-91.044795	463.005014	1254.187199	-94.337505	367.568410	1259.545382	-50.908366	390.441120	1170.245398	-18.176170	324.044505	1158.343283	-77.533190	452.834768	1330.211031	-593.854737	389.565093	1264.604591	-577.802625	437.068264	1243.410396	-637.989839	416.434887	1144.575212	-684.855316	374.760852	1095.340952	-622.809541	459.493112	1140.673079	-61.305166	563.519877	1099.512997	-186.242828	533.615649	1041.087689	-163.233643	487.100053	1145.394817	-666.377841	622.413565	1128.414387	-556.588074	627.601879	1074.295535	-597.011493	489.585148	388.284529	-232.083562	
4	  0.033333	488.559775	993.772172	-458.377275	505.589988	987.576947	-207.740221	321.384589	1011.338996	-355.425798	328.846004	1010.489409	-269.568285	500.821981	805.242144	-168.585766	593.236077	708.579894	-189.887021	553.774894	574.235285	-177.164768	446.183691	851.745665	-501.813010	507.113470	740.850674	-491.821957	451.118620	598.485018	-474.575444	427.069511	395.899119	-179.055041	340.201050	323.218843	-241.596578	483.798927	359.543255	-393.441236	407.841850	267.934141	-432.610248	400.932610	191.864948	-354.089734	175.931389	363.959637	-255.064833	252.249590	158.759406	-241.557411	216.838114	188.743102	-153.076923	249.880893	104.154321	-340.178510	463.216393	 72.242076	-352.913995	430.640924	 58.477888	-434.873526	488.244919	1406.294188	-541.947194	491.130967	1433.698990	-155.262226	584.924540	1390.672971	-320.023504	457.351151	1488.254346	-357.200004	452.535256	1329.583764	-91.365393	457.186014	1257.950258	-93.995866	360.432430	1263.841263	-53.516266	380.971708	1174.034080	-19.596037	316.864853	1163.290173	-81.072456	456.722670	1330.695108	-593.675001	394.248461	1263.781184	-577.411520	441.769685	1243.304669	-636.899714	423.742488	1143.142490	-683.577462	382.785549	1094.060769	-620.922532	450.735552	1142.118578	-60.008789	558.469064	1098.500642	-181.992370	526.058357	1041.099020	-159.760861	494.527184	1144.831893	-664.892818	629.106349	1130.719090	-552.504009	635.956654	1077.077426	-593.218030	503.389942	392.209883	-233.008230	
5	  0.041667	487.319158	995.643864	-458.875451	504.994588	990.706820	-208.555695	320.409036	1014.299541	-356.165870	328.043180	1013.271460	-270.471814	502.652644	809.462110	-168.770970	597.851992	714.868563	-191.028945	561.650927	580.376035	-178.700784	442.194667	853.411906	-501.702340	500.514466	741.367861	-491.625239	440.838860	600.149386	-473.881734	440.807971	398.218247	-179.644465	355.995423	322.635226	-241.977524	469.020553	360.220279	-393.061084	392.326034	269.549273	-432.708914	385.190331	193.010118	-354.634677	189.297330	358.087381	-252.495771	274.485520	155.988041	-243.628975	238.805290	183.051843	-153.927501	233.123584	105.341847	-340.339498	446.466137	 72.106376	-353.226737	413.937808	 58.423983	-435.121700	490.425738	1408.748893	-541.867908	488.006554	1437.164092	-155.418845	584.184848	1394.276205	-318.819236	456.777399	1491.032407	-357.539640	447.363815	1333.934493	-91.557099	451.165241	1262.351174	-93.706899	353.507408	1269.113836	-55.527363	371.471978	1178.868619	-20.662878	309.550674	1169.362566	-84.197928	460.928594	1332.263014	-593.458429	398.445567	1264.797710	-577.580750	446.363584	1244.382559	-635.693084	430.407333	1143.321032	-681.933731	390.141360	1094.388189	-618.766921	441.896072	1145.279574	-58.419870	553.413485	1100.219176	-176.942891	518.875276	1043.496825	-156.365815	501.211107	1146.124574	-662.902298	634.911524	1135.096017	-548.173640	643.224204	1081.342728	-588.499981	516.869940	396.566533	-234.108753	
6	  0.050000	486.596889	997.771995	-460.087900	504.465869	994.500967	-208.956563	319.700085	1017.831960	-356.946529	327.614237	1016.753164	-271.560374	504.779856	814.547964	-169.062196	602.086142	721.769342	-192.329040	568.657601	587.232010	-180.428342	438.538163	855.395915	-501.430637	494.486303	742.340422	-490.886145	430.502029	602.438494	-472.724890	454.151724	400.397980	-180.513123	371.586223	321.638521	-242.881090	453.873588	361.519211	-392.187625	376.766279	271.620052	-432.467521	369.328990	194.657173	-355.131694	202.939376	350.451202	-250.130228	297.705734	152.277818	-246.577338	261.909241	176.228651	-155.304961	216.297018	107.058401	-340.602709	429.960059	 72.220992	-353.083720	397.262614	 58.407823	-435.308857	492.694210	1412.268784	-541.575477	485.177186	1441.169425	-155.466730	583.513468	1398.516460	-317.586431	456.349215	1494.481560	-357.571961	442.378343	1338.971374	-91.598408	445.095150	1267.450248	-93.352506	346.802863	1275.414275	-56.967926	362.181184	1184.911736	-21.378846	302.229695	1176.489741	-86.821660	465.199347	1335.024071	-593.128755	402.134071	1267.601979	-578.137358	450.913625	1246.747941	-634.436271	436.453202	1145.165478	-680.036930	396.535264	1096.402021	-616.472100	433.248299	1150.363414	-56.590921	548.446320	1104.675818	-171.225672	512.200564	1048.286097	-153.004902	507.140867	1149.257512	-660.407259	639.680048	1141.522075	-543.550820	649.198399	1087.071356	-582.756530	529.902421	401.318337	-235.413090	
7	  0.058333	486.352614	1000.089599	-461.734174	503.966073	998.927116	-209.564548	319.443291	1021.801659	-357.834764	327.522739	1020.846488	-272.729712	506.999833	820.249415	-169.498141	605.914591	729.181105	-193.758456	574.884180	594.439728	-182.195078	435.383052	857.666235	-501.031825	488.971084	743.623713	-489.729159	420.206002	605.343580	-471.156261	467.096557	402.267936	-181.615024	387.012190	320.225297	-244.049930	438.612605	363.494152	-391.001636	361.334981	274.192889	-431.939758	353.508107	196.786933	-355.445690	216.934459	341.200961	-248.094974	321.657142	147.889835	-249.746017	286.099398	168.675266	-157.052959	199.749817	109.502400	-341.121520	413.840471	 72.591857	-352.621627	380.567044	 58.412315	-435.362639	494.857603	1416.691984	-541.029649	482.475310	1445.673407	-155.394361	582.874384	1403.224551	-316.249306	456.010115	1498.479145	-357.329973	437.496207	1344.695372	-91.496411	439.211170	1273.192367	-92.788616	340.327467	1282.551283	-58.005057	353.399856	1192.054611	-21.809255	295.120835	1184.301875	-88.937160	469.159224	1338.862332	-592.608608	405.397656	1271.736076	-578.784040	455.489816	1250.251205	-633.213498	442.010208	1148.352466	-678.108989	401.799059	1099.838404	-614.266395	425.124613	1157.130638	-54.622086	543.667522	1111.170610	-165.188395	506.127549	1054.885917	-149.628889	512.425023	1153.743370	-657.542768	643.409160	1149.446947	-538.674294	653.861009	1093.882510	-576.131057	542.395764	406.312556	-236.936837	
